<svg xmlns="http://www.w3.org/2000/svg" xmlns:v="https://vecta.io/nano" xmlns:xlink="http://www.w3.org/1999/xlink"
  width="186" height="171" fill="none">
  <style>
    .B {
      fill-rule: evenodd
    }

    .C {
      fill: #606063
    }

    .D {
      fill: #612f01
    }

    .E {
      fill: #fedc90
    }

    .F {
      fill: #d1884f
    }
  </style>
  <!-- <g class="C">
    <path
      d="M67.045 119.028c-3.178 12.144 15 27.421 40.602 34.121s48.934 2.287 52.112-9.858-15-27.421-40.602-34.122-48.934-2.286-52.112 9.859z" />
    <path d="M155.924 149.273l15.422-16.285-109.354-28.619 5.721 21.818 88.211 23.086z" />
    <path
      d="M68.934 108.293L27.073 97.338c-1.815-.475-3.66.654-4.063 2.486l-.468 2.129a8.26 8.26 0 0 0 5.746 9.7l41.812 12.239-1.166-15.599z" />
  </g> -->
  <!-- <image xlink:href="https://s2.coinmarketcap.com/static/img/coins/64x64/8087.png" width="64" height="64" x="100" y="40" /> -->

<svg xmlns="http://www.w3.org/2000/svg" width="64" height="64" x="100" y="40" viewBox="0 0 618.512 359.122">
 <g id="FastSwap_Logo" transform="translate(-86.991 -361.338)">
    <g id="Group_1" data-name="Group 1">
      <path id="Path_1" data-name="Path 1" d="M315.005,219.184l34.194,11.7c12.765,4.366,25.516,8.777,38.31,13.055,2.27.76,3.864,1.648,3.838,4.344-.059,6.377,3.329,9.028,9.415,10.952,50.484,15.956,100.833,32.342,151.221,48.6a5.751,5.751,0,0,1,3,1.8L373.263,264.213c-.083.248-.165.5-.248.744,1.367.573,2.725,1.165,4.1,1.717,21.615,8.681,43.243,17.328,64.822,26.1a7.243,7.243,0,0,1,3.8,3.23,97.1,97.1,0,0,0,25.713,36.078c2.772,2.433,5.234,5.216,7.964,7.7,2.438,2.22,4.468,4.449,3.961,8.156-.127.924.807,2.047,1.379,3,1.893,3.17,1.6,6.4.052,9.5-1.752,3.5-6.885,4.129-9.732.856-5.589-6.429-11.04-13.006-16.125-19.836-8.838-11.873-17.853-23.5-29.366-33.026a31.919,31.919,0,0,0-15.259-7.109c-13.022-2.341-25.988-5.013-38.926-7.784a71.814,71.814,0,0,1-10.842-3.647c-8.056-3.143-14.538-8.122-19.021-15.753-3.606-6.14-7.677-12.019-11.735-17.878-11.16-16.108-26.911-24.2-46.183-25.249a98.529,98.529,0,0,0-23.575,1.08c-9.668,1.839-18.955.682-28.4-.591-10.205-1.376-20.419-2.686-30.747-3.524q53.7,13.648,107.391,27.294c-.036.235-.071.47-.108.705-4.5-.658-9.009-1.28-13.506-1.978-36.983-5.742-74.014-11.2-110.914-17.436-11.079-1.872-21.794-5.9-32.66-9.005-2.006-.574-3.185-1.673-2.673-4.2,1.859-9.138-.682-17.9-3.229-26.747-.082,3.178-.033,6.365-.272,9.531-.517,6.847-1.3,13.676-1.736,20.528-.227,3.547-1.913,4.268-4.993,3.489-11.829-2.991-23.746-5.668-35.481-8.987-11.377-3.217-22.538-7.2-33.874-10.563a16.342,16.342,0,0,0-7.526-.1c-6.115,1.21-9.025,7.624-4.974,12.191,5.1,5.751,1.98,11.366.7,16.728-1.121,4.7-8.882,5.143-12.382.935-6.969-8.378-9.231-18.027-6.544-28.618a44.7,44.7,0,0,1,3.942-10.706c3.564-6.4,9.791-8.878,16.725-8.871,5.953.006,11.9,1.138,17.859,1.5,5.7.345,11.424.337,17.264.487-.033.079.191-.2.126-.343-4.3-9.768-8.693-19.495-12.906-29.3-2.712-6.311-12.133-9.277-17.584-5.13-4.8,3.653-9.759,4.547-14.8,1.1-5.1-3.483-9.654-3.694-14.249.684a9.005,9.005,0,0,1-3.031,1.577c-3.168,1.21-5.661.4-7.561-2.5-3.3-5.031-6.565-10.091-10.108-14.946-1.8-2.47-2.02-4.558,0-6.814a84.771,84.771,0,0,1,6.991-7.55c2.221-1.939,3.082-4.1,2.31-6.732-.975-3.331.293-5.727,2.633-7.786,7.963-7.008,17.09-11.38,27.77-12.373a5.5,5.5,0,0,0,3.563-1.968c3.641-5.069,7.106-6.617,13.138-5.048a21.1,21.1,0,0,1,7.033,2.859c5.712,4.135,12.015,4.481,18.555,3.53,11.727-1.706,22.187.9,31.517,8.349,1.182.942,3.5.942,5.191.683,8.523-1.312,16.978-3.11,25.524-4.219,5.033-.653,9.735.966,14.016,3.962,4.325,3.027,8.937,5.644,13.121,9.242l-20.539-3.1c-.068.249-.135.5-.2.746l99.421,31.831q-.133.518-.265,1.033l-100.33-23.251c-.029.088-.059.177-.087.266q11.586,3.726,23.173,7.452c2.667.856,5.3,1.869,8.015,2.5a19.32,19.32,0,0,1,9.913,6.014,12.082,12.082,0,0,0,6.084,3.36q47.766,9.38,95.6,18.421c11.74,2.218,23.511,4.362,35.346,5.962,10.7,1.446,19.534-1.914,27.287-10.147a238.166,238.166,0,0,0,33.741-44.706c9.62-16.78,12.4-35.337,13.05-54.409a237.181,237.181,0,0,1,2.491-29.6c1.693-10.5,8.747-18,17.143-23.9a19.6,19.6,0,0,1,17.576-2.462c6.515,2.023,8.222,6.729,4.351,12.216-3.814,5.407-8.015,10.541-11.84,15.941a38.32,38.32,0,0,0-7.485,22.358c-.217,16.475-3.144,32.683-7.3,48.617-3.357,12.865-9.924,24.192-17.549,34.968a249.312,249.312,0,0,1-29.749,34.793c-1.9,1.844-3.651,3.832-5.806,6.106l137.514,53.535c-.072.2-.142.4-.212.6L335.026,184.613c-.071.213-.141.426-.213.64q11.694,4.407,23.389,8.815c7.625,2.867,15.185,5.932,22.913,8.488,3.656,1.209,5.563,3.065,5.547,6.933-.007,1.625.311,3.251.558,5.6L297.6,192.259c-.048.164-.1.328-.145.492l319.8,103.23c-.066.237-.131.472-.2.708l-301.9-78q-.077.249-.152.5m-237.382-91c4.654-6.018,3.642-19.161-2.177-24.266a5.455,5.455,0,0,0-3.327-1.369c-3.7.057-8.781,3.429-10.988,7.066.975-.392,1.782-.714,2.586-1.04,7.6-3.078,10.327-2.019,12.42,5.984,1.158,4.43,1.043,9.192,1.486,13.625m-34.756.144c-3.087-2.608-5.864-1.077-8.291.125-.8.4-.679,2.656-1.149,4.868l9.44-4.993" transform="translate(87 356)" fill="#2ba562"/>
      <path id="Path_2" data-name="Path 2" d="M315.005,219.184l34.194,11.7c12.765,4.366,25.516,8.777,38.31,13.055,2.27.76,3.864,1.648,3.838,4.344-.059,6.377,3.329,9.028,9.415,10.952,50.484,15.956,100.833,32.342,151.221,48.6a5.751,5.751,0,0,1,3,1.8L373.263,264.213c-.083.248-.165.5-.248.744,1.367.573,2.725,1.165,4.1,1.717,21.615,8.681,43.243,17.328,64.822,26.1a7.243,7.243,0,0,1,3.8,3.23,97.1,97.1,0,0,0,25.713,36.078c2.772,2.433,5.234,5.216,7.964,7.7,2.438,2.22,4.468,4.449,3.961,8.156-.127.924.807,2.047,1.379,3,1.893,3.17,1.6,6.4.052,9.5-1.752,3.5-6.885,4.129-9.732.856-5.589-6.429-11.04-13.006-16.125-19.836-8.838-11.873-17.853-23.5-29.366-33.026a31.919,31.919,0,0,0-15.259-7.109c-13.022-2.341-25.988-5.013-38.926-7.784a71.814,71.814,0,0,1-10.842-3.647c-8.056-3.143-14.538-8.122-19.021-15.753-3.606-6.14-7.677-12.019-11.735-17.878-11.16-16.108-26.911-24.2-46.183-25.249a98.529,98.529,0,0,0-23.575,1.08c-9.668,1.839-18.955.682-28.4-.591-10.205-1.376-20.419-2.686-30.747-3.524q53.7,13.648,107.391,27.294c-.036.235-.071.47-.108.705-4.5-.658-9.009-1.28-13.506-1.978-36.983-5.742-74.014-11.2-110.914-17.436-11.079-1.872-21.794-5.9-32.66-9.005-2.006-.574-3.185-1.673-2.673-4.2,1.859-9.138-.682-17.9-3.229-26.747-.082,3.178-.033,6.365-.272,9.531-.517,6.847-1.3,13.676-1.736,20.528-.227,3.547-1.913,4.268-4.993,3.489-11.829-2.991-23.746-5.668-35.481-8.987-11.377-3.217-22.538-7.2-33.874-10.563a16.342,16.342,0,0,0-7.526-.1c-6.115,1.21-9.025,7.624-4.974,12.191,5.1,5.751,1.98,11.366.7,16.728-1.121,4.7-8.882,5.143-12.382.935-6.969-8.378-9.231-18.027-6.544-28.618a44.7,44.7,0,0,1,3.942-10.706c3.564-6.4,9.791-8.878,16.725-8.871,5.953.006,11.9,1.138,17.859,1.5,5.7.345,11.424.337,17.264.487-.033.079.191-.2.126-.343-4.3-9.768-8.693-19.495-12.906-29.3-2.712-6.311-12.133-9.277-17.584-5.13-4.8,3.653-9.759,4.547-14.8,1.1-5.1-3.483-9.654-3.694-14.249.684a9.005,9.005,0,0,1-3.031,1.577c-3.168,1.21-5.661.4-7.561-2.5-3.3-5.031-6.565-10.091-10.108-14.946-1.8-2.47-2.02-4.558,0-6.814a84.771,84.771,0,0,1,6.991-7.55c2.221-1.939,3.082-4.1,2.31-6.732-.975-3.331.293-5.727,2.633-7.786,7.963-7.008,17.09-11.38,27.77-12.373a5.5,5.5,0,0,0,3.563-1.968c3.641-5.069,7.106-6.617,13.138-5.048a21.1,21.1,0,0,1,7.033,2.859c5.712,4.135,12.015,4.481,18.555,3.53,11.727-1.706,22.187.9,31.517,8.349,1.182.942,3.5.942,5.191.683,8.523-1.312,16.978-3.11,25.524-4.219,5.033-.653,9.735.966,14.016,3.962,4.325,3.027,8.937,5.644,13.121,9.242l-20.539-3.1c-.068.249-.135.5-.2.746l99.421,31.831q-.133.518-.265,1.033l-100.33-23.251c-.029.088-.059.177-.087.266q11.586,3.726,23.173,7.452c2.667.856,5.3,1.869,8.015,2.5a19.32,19.32,0,0,1,9.913,6.014,12.082,12.082,0,0,0,6.084,3.36q47.766,9.38,95.6,18.421c11.74,2.218,23.511,4.362,35.346,5.962,10.7,1.446,19.534-1.914,27.287-10.147a238.166,238.166,0,0,0,33.741-44.706c9.62-16.78,12.4-35.337,13.05-54.409a237.181,237.181,0,0,1,2.491-29.6c1.693-10.5,8.747-18,17.143-23.9a19.6,19.6,0,0,1,17.576-2.462c6.515,2.023,8.222,6.729,4.351,12.216-3.814,5.407-8.015,10.541-11.84,15.941a38.32,38.32,0,0,0-7.485,22.358c-.217,16.475-3.144,32.683-7.3,48.617-3.357,12.865-9.924,24.192-17.549,34.968a249.312,249.312,0,0,1-29.749,34.793c-1.9,1.844-3.651,3.832-5.806,6.106l137.514,53.535c-.072.2-.142.4-.212.6L335.026,184.613c-.071.213-.141.426-.213.64q11.694,4.407,23.389,8.815c7.625,2.867,15.185,5.932,22.913,8.488,3.656,1.209,5.563,3.065,5.547,6.933-.007,1.625.311,3.251.558,5.6L297.6,192.259c-.048.164-.1.328-.145.492l319.8,103.23c-.066.237-.131.472-.2.708l-301.9-78Q315.08,218.933,315.005,219.184Zm-237.382-91c4.654-6.018,3.642-19.161-2.177-24.266a5.455,5.455,0,0,0-3.327-1.369c-3.7.057-8.781,3.429-10.988,7.066.975-.392,1.782-.714,2.586-1.04,7.6-3.078,10.327-2.019,12.42,5.984C77.295,118.988,77.18,123.75,77.623,128.183Zm-34.756.144c-3.087-2.608-5.864-1.077-8.291.125-.8.4-.679,2.656-1.149,4.868Z" transform="translate(87 356)" fill="none" stroke="#131413" stroke-miterlimit="10" stroke-width="2.04"/>
      <path id="Path_3" data-name="Path 3" d="M40.5,201.887c-1.177,7.261-2.054,13.119-3.159,18.935a3.218,3.218,0,0,1-2.255,1.843c-5.741.922-10.129,3.375-12.928,8.852-2.429,4.753-4.526,5.277-10.019,4.368-.728-.12-1.546.482-2.337.539-2.021.146-4.585.959-5.935.04a7.431,7.431,0,0,1-2.84-5.633,14.644,14.644,0,0,1,2.86-8.082c3.376-4.039,6.983-8.488,11.5-10.836,7.8-4.053,16.361-6.631,25.113-10.026" transform="translate(87 356)" fill="#2ba562"/>
      <path id="Path_4" data-name="Path 4" d="M40.5,201.887c-1.177,7.261-2.054,13.119-3.159,18.935a3.218,3.218,0,0,1-2.255,1.843c-5.741.922-10.129,3.375-12.928,8.852-2.429,4.753-4.526,5.277-10.019,4.368-.728-.12-1.546.482-2.337.539-2.021.146-4.585.959-5.935.04a7.431,7.431,0,0,1-2.84-5.633,14.644,14.644,0,0,1,2.86-8.082c3.376-4.039,6.983-8.488,11.5-10.836C23.184,207.86,31.748,205.282,40.5,201.887Z" transform="translate(87 356)" fill="none" stroke="#131413" stroke-miterlimit="10" stroke-width="2.04"/>
      <path id="Path_5" data-name="Path 5" d="M210.846,274.668c6.9.984,13.812,1.95,20.711,2.957,24.809,3.621,49.713,6.706,74.388,11.078,16.379,2.9,32.434,7.633,48.627,11.581q28.55,6.965,57.087,13.994a9.932,9.932,0,0,1,3.877,1.668L210.744,275.291q.053-.312.1-.623" transform="translate(87 356)" fill="#2ba562"/>
      <path id="Path_6" data-name="Path 6" d="M210.846,274.668c6.9.984,13.812,1.95,20.711,2.957,24.809,3.621,49.713,6.706,74.388,11.078,16.379,2.9,32.434,7.633,48.627,11.581q28.55,6.965,57.087,13.994a9.932,9.932,0,0,1,3.877,1.668L210.744,275.291Q210.8,274.979,210.846,274.668Z" transform="translate(87 356)" fill="none" stroke="#131413" stroke-miterlimit="10" stroke-width="2.04"/>
      <path id="Path_7" data-name="Path 7" d="M146.276,246.941l110.4,22.918-.09.622c-7.064-.9-14.126-1.807-21.192-2.688-11.482-1.432-23.053-2.367-34.423-4.419-9.079-1.641-17.953-4.5-26.847-7.063-9.384-2.705-18.684-5.7-28.021-8.57Z" transform="translate(87 356)" fill="#2ba562"/>
      <path id="Path_8" data-name="Path 8" d="M146.276,246.941l110.4,22.918-.09.622c-7.064-.9-14.126-1.807-21.192-2.688-11.482-1.432-23.053-2.367-34.423-4.419-9.079-1.641-17.953-4.5-26.847-7.063-9.384-2.705-18.684-5.7-28.021-8.57Z" transform="translate(87 356)" fill="none" stroke="#131413" stroke-miterlimit="10" stroke-width="2.04"/>
      <path id="Path_9" data-name="Path 9" d="M113.448,228.953c-5.924-1.063-11.818-2.336-17.776-3.142-9.392-1.27-18.851-2.06-28.217-3.481-1.577-.239-3.472-2.4-4.075-4.082-.829-2.316,1.315-3.28,3.357-3.533a9.737,9.737,0,0,1,3.778.1c14.446,4.174,28.867,8.432,43.293,12.667Z" transform="translate(87 356)" fill="#2ba562"/>
      <path id="Path_10" data-name="Path 10" d="M113.448,228.953c-5.924-1.063-11.818-2.336-17.776-3.142-9.392-1.27-18.851-2.06-28.217-3.481-1.577-.239-3.472-2.4-4.075-4.082-.829-2.316,1.315-3.28,3.357-3.533a9.737,9.737,0,0,1,3.778.1c14.446,4.174,28.867,8.432,43.293,12.667Z" transform="translate(87 356)" fill="none" stroke="#131413" stroke-miterlimit="10" stroke-width="2.04"/>
      <path id="Path_11" data-name="Path 11" d="M77.623,128.184c-.442-4.434-.328-9.2-1.486-13.625-2.093-8-4.816-9.062-12.42-5.984-.8.326-1.611.647-2.586,1.04,2.207-3.637,7.288-7.009,10.988-7.067a5.467,5.467,0,0,1,3.327,1.369c5.82,5.106,6.831,18.248,2.177,24.267" transform="translate(87 356)" fill="#1d7743"/>
      <path id="Path_12" data-name="Path 12" d="M42.867,128.327l-9.44,4.993c.47-2.212.348-4.472,1.149-4.868,2.427-1.2,5.2-2.733,8.291-.125" transform="translate(87 356)"/>
      <path id="Path_13" data-name="Path 13" d="M129.832,136.334c1.539.261,2.293,1.262,1.87,2.693a7.121,7.121,0,0,1-3.31,3.811,1.166,1.166,0,0,1-1.117-.233,21.432,21.432,0,0,1-1.6-3.684,1.647,1.647,0,0,1,.729-1.411,28.013,28.013,0,0,1,3.427-1.176" transform="translate(87 356)" fill="#131413"/>
      <path id="Path_14" data-name="Path 14" d="M117.713,127.039c-2.3-.244-2.483-.466-1.882-2.663a10.994,10.994,0,0,1,.856-2.217,1.372,1.372,0,0,1,1.939-.682,18.7,18.7,0,0,1,2.651,1.35,1.871,1.871,0,0,1-.308,3.459,19.086,19.086,0,0,1-3.256.753" transform="translate(87 356)" fill="#131413"/>
      <path id="Path_15" data-name="Path 15" d="M110.128,146.452c-.33-.025-.661-.042-.99-.078-.612-.068-.937-.47-.8-1.023a17.848,17.848,0,0,1,.942-2.908,1.192,1.192,0,0,1,1.744-.625A14.123,14.123,0,0,1,113.3,143a1.608,1.608,0,0,1-.359,2.964,16.407,16.407,0,0,1-2.779.619c-.01-.044-.02-.088-.031-.132" transform="translate(87 356)" fill="#131413"/>
      <path id="Path_16" data-name="Path 16" d="M108.65,132.1c-.363.658-.956,1.824-1.655,2.923a1.056,1.056,0,0,1-1.018.133,14.7,14.7,0,0,1-2.138-2.435,1.478,1.478,0,0,1,.189-1.417,8.3,8.3,0,0,1,2.373-1.575c1.343-.564,2.375.3,2.249,2.371" transform="translate(87 356)" fill="#131413"/>
      <path id="Path_17" data-name="Path 17" d="M99.5,113.435c-.393-2.281-.229-2.517,2.049-2.537a11.029,11.029,0,0,1,2.366.218,1.374,1.374,0,0,1,1.187,1.679,18.706,18.706,0,0,1-.578,2.919,1.871,1.871,0,0,1-3.412.648,19.332,19.332,0,0,1-1.612-2.927" transform="translate(87 356)" fill="#131413"/>
      <path id="Path_18" data-name="Path 18" d="M91.209,130.1c-.732-.169-2.016-.422-3.264-.794a1.057,1.057,0,0,1-.4-.943,14.7,14.7,0,0,1,1.76-2.721,1.477,1.477,0,0,1,1.414-.205,8.308,8.308,0,0,1,2.163,1.853c.908,1.138.361,2.367-1.668,2.81" transform="translate(87 356)" fill="#131413"/>
      <path id="Path_19" data-name="Path 19" d="M92.014,140.464a20.182,20.182,0,0,1,2.139.625,1.28,1.28,0,0,1,.361,2.33,12.338,12.338,0,0,1-3.118,1.128c-.156.044-.65-.419-.656-.657a8.528,8.528,0,0,1,.2-2.537c.109-.388.737-.629,1.07-.889" transform="translate(87 356)" fill="#131413"/>
      <path id="Path_20" data-name="Path 20" d="M89.452,154.848a20.668,20.668,0,0,1,2.139.625,1.281,1.281,0,0,1,.361,2.331,12.336,12.336,0,0,1-3.118,1.127c-.156.045-.65-.418-.656-.656a8.522,8.522,0,0,1,.2-2.537c.109-.388.737-.629,1.07-.89" transform="translate(87 356)" fill="#131413"/>
      <path id="Path_21" data-name="Path 21" d="M257.5,219.308c1.539.26,2.293,1.261,1.87,2.692a7.117,7.117,0,0,1-3.31,3.811,1.166,1.166,0,0,1-1.117-.232,21.467,21.467,0,0,1-1.6-3.684,1.644,1.644,0,0,1,.729-1.411,28.013,28.013,0,0,1,3.427-1.176" transform="translate(87 356)" fill="#131413"/>
      <path id="Path_22" data-name="Path 22" d="M248.381,166.713c-2.3-.244-2.483-.466-1.882-2.663a10.972,10.972,0,0,1,.856-2.217,1.373,1.373,0,0,1,1.939-.683,18.816,18.816,0,0,1,2.651,1.351,1.871,1.871,0,0,1-.308,3.459,19.158,19.158,0,0,1-3.256.753" transform="translate(87 356)" fill="#131413"/>
      <path id="Path_23" data-name="Path 23" d="M288.466,230.757c-2.3-.244-2.484-.466-1.882-2.663a11.05,11.05,0,0,1,.855-2.217,1.373,1.373,0,0,1,1.939-.682,18.5,18.5,0,0,1,2.651,1.351,1.87,1.87,0,0,1-.307,3.458,19.108,19.108,0,0,1-3.256.753" transform="translate(87 356)" fill="#131413"/>
      <path id="Path_24" data-name="Path 24" d="M215.531,223.867c-.33-.025-.661-.042-.99-.078-.613-.068-.937-.47-.8-1.023a17.878,17.878,0,0,1,.942-2.908,1.192,1.192,0,0,1,1.744-.625,14.2,14.2,0,0,1,2.275,1.183,1.608,1.608,0,0,1-.359,2.964,16.428,16.428,0,0,1-2.779.619c-.01-.044-.02-.088-.031-.132" transform="translate(87 356)" fill="#131413"/>
      <path id="Path_25" data-name="Path 25" d="M236.276,181.3c-.362.658-.956,1.824-1.654,2.923a1.056,1.056,0,0,1-1.018.133,14.666,14.666,0,0,1-2.138-2.436,1.474,1.474,0,0,1,.189-1.416,8.305,8.305,0,0,1,2.373-1.576c1.342-.563,2.375.3,2.248,2.372" transform="translate(87 356)" fill="#131413"/>
      <path id="Path_26" data-name="Path 26" d="M296.831,176.837c-.363.659-.956,1.824-1.655,2.924a1.053,1.053,0,0,1-1.018.132,14.61,14.61,0,0,1-2.137-2.435,1.476,1.476,0,0,1,.188-1.416,8.275,8.275,0,0,1,2.374-1.576c1.342-.564,2.374.3,2.248,2.371" transform="translate(87 356)" fill="#131413"/>
      <path id="Path_27" data-name="Path 27" d="M334.069,172.352c-.362.658-.956,1.824-1.654,2.923a1.056,1.056,0,0,1-1.018.133,14.706,14.706,0,0,1-2.138-2.436,1.474,1.474,0,0,1,.189-1.416,8.3,8.3,0,0,1,2.373-1.576c1.342-.563,2.375.3,2.248,2.372" transform="translate(87 356)" fill="#131413"/>
      <path id="Path_28" data-name="Path 28" d="M215.412,164.795c-.393-2.281-.229-2.518,2.049-2.537a11.03,11.03,0,0,1,2.366.218,1.374,1.374,0,0,1,1.187,1.679,18.708,18.708,0,0,1-.578,2.919,1.871,1.871,0,0,1-3.412.648,19.381,19.381,0,0,1-1.612-2.927" transform="translate(87 356)" fill="#131413"/>
      <path id="Path_29" data-name="Path 29" d="M207.117,181.455c-.732-.169-2.016-.422-3.264-.794a1.057,1.057,0,0,1-.4-.943,14.7,14.7,0,0,1,1.76-2.721,1.475,1.475,0,0,1,1.414-.2,8.308,8.308,0,0,1,2.163,1.853c.908,1.138.361,2.366-1.668,2.81" transform="translate(87 356)" fill="#131413"/>
      <path id="Path_30" data-name="Path 30" d="M406.626,124.5c-2.3-.244-2.483-.466-1.882-2.663a10.994,10.994,0,0,1,.856-2.217,1.372,1.372,0,0,1,1.939-.682,18.608,18.608,0,0,1,2.651,1.351,1.87,1.87,0,0,1-.308,3.458,19.064,19.064,0,0,1-3.256.753" transform="translate(87 356)" fill="#131413"/>
      <path id="Path_31" data-name="Path 31" d="M414.929,136.628c-2.3-.244-2.484-.466-1.882-2.663a10.968,10.968,0,0,1,.855-2.217,1.374,1.374,0,0,1,1.939-.683,18.709,18.709,0,0,1,2.651,1.351,1.871,1.871,0,0,1-.307,3.459,19.2,19.2,0,0,1-3.256.753" transform="translate(87 356)" fill="#131413"/>
      <path id="Path_32" data-name="Path 32" d="M395.252,164.761c-2.3-.244-2.484-.465-1.882-2.663a11.018,11.018,0,0,1,.856-2.217,1.372,1.372,0,0,1,1.938-.682,18.5,18.5,0,0,1,2.651,1.351,1.871,1.871,0,0,1-.307,3.459,19.2,19.2,0,0,1-3.256.752" transform="translate(87 356)" fill="#131413"/>
      <path id="Path_33" data-name="Path 33" d="M361.739,176.28c-2.3-.244-2.483-.465-1.882-2.663a11.018,11.018,0,0,1,.856-2.217,1.372,1.372,0,0,1,1.939-.682,18.607,18.607,0,0,1,2.651,1.351,1.87,1.87,0,0,1-.308,3.458,19.085,19.085,0,0,1-3.256.753" transform="translate(87 356)" fill="#131413"/>
      <path id="Path_34" data-name="Path 34" d="M390.97,200.384c-2.3-.244-2.484-.466-1.882-2.663a10.966,10.966,0,0,1,.855-2.217,1.373,1.373,0,0,1,1.939-.683,18.707,18.707,0,0,1,2.651,1.351,1.871,1.871,0,0,1-.307,3.459,19.2,19.2,0,0,1-3.256.753" transform="translate(87 356)" fill="#131413"/>
      <path id="Path_35" data-name="Path 35" d="M446.1,11.881c-.362.658-.956,1.824-1.654,2.923a1.058,1.058,0,0,1-1.019.133,14.66,14.66,0,0,1-2.137-2.436,1.476,1.476,0,0,1,.188-1.416,8.3,8.3,0,0,1,2.374-1.576c1.342-.563,2.374.3,2.248,2.372" transform="translate(87 356)" fill="#131413"/>
      <path id="Path_36" data-name="Path 36" d="M418.191,80.718c-.393-2.281-.229-2.517,2.049-2.537a11.035,11.035,0,0,1,2.366.218,1.374,1.374,0,0,1,1.186,1.679A18.474,18.474,0,0,1,423.214,83a1.87,1.87,0,0,1-3.411.648,19.244,19.244,0,0,1-1.612-2.927" transform="translate(87 356)" fill="#131413"/>
      <path id="Path_37" data-name="Path 37" d="M432.751,71.519c-.393-2.28-.229-2.517,2.049-2.537a11.03,11.03,0,0,1,2.366.219,1.373,1.373,0,0,1,1.187,1.678,18.74,18.74,0,0,1-.578,2.92,1.871,1.871,0,0,1-3.412.648,19.39,19.39,0,0,1-1.612-2.928" transform="translate(87 356)" fill="#131413"/>
      <path id="Path_38" data-name="Path 38" d="M427.759,39.987c-.393-2.281-.229-2.517,2.048-2.537a11.029,11.029,0,0,1,2.366.218,1.373,1.373,0,0,1,1.186,1.679,18.368,18.368,0,0,1-.578,2.919,1.869,1.869,0,0,1-3.41.648,19.159,19.159,0,0,1-1.612-2.927" transform="translate(87 356)" fill="#131413"/>
      <path id="Path_39" data-name="Path 39" d="M442.828,34.069c-.394-2.28-.23-2.517,2.049-2.536a10.963,10.963,0,0,1,2.365.218,1.373,1.373,0,0,1,1.187,1.679,18.731,18.731,0,0,1-.578,2.919A1.87,1.87,0,0,1,444.44,37a19.159,19.159,0,0,1-1.612-2.927" transform="translate(87 356)" fill="#131413"/>
      <path id="Path_40" data-name="Path 40" d="M432.5,106.167c-.732-.169-2.016-.422-3.264-.795a1.055,1.055,0,0,1-.4-.942,14.662,14.662,0,0,1,1.76-2.721A1.475,1.475,0,0,1,432,101.5a8.308,8.308,0,0,1,2.163,1.853c.908,1.137.361,2.366-1.668,2.81" transform="translate(87 356)" fill="#131413"/>
      <path id="Path_41" data-name="Path 41" d="M188.344,196.873c-.733-.169-2.017-.422-3.263-.794a1.056,1.056,0,0,1-.406-.943,14.741,14.741,0,0,1,1.759-2.721,1.479,1.479,0,0,1,1.414-.2,8.28,8.28,0,0,1,2.164,1.853c.907,1.138.362,2.367-1.668,2.81" transform="translate(87 356)" fill="#131413"/>
      <path id="Path_42" data-name="Path 42" d="M207.822,204.244c-.732-.169-2.016-.422-3.264-.795a1.055,1.055,0,0,1-.4-.942,14.7,14.7,0,0,1,1.76-2.721,1.475,1.475,0,0,1,1.414-.205,8.308,8.308,0,0,1,2.163,1.853c.908,1.138.361,2.366-1.668,2.81" transform="translate(87 356)" fill="#131413"/>
      <path id="Path_43" data-name="Path 43" d="M229.9,200.075a20.671,20.671,0,0,1,2.139.625,1.281,1.281,0,0,1,.361,2.331,12.322,12.322,0,0,1-3.118,1.127c-.156.045-.65-.418-.656-.656a8.489,8.489,0,0,1,.205-2.537c.108-.388.737-.629,1.069-.89" transform="translate(87 356)" fill="#131413"/>
      <path id="Path_44" data-name="Path 44" d="M265.125,193.037a20.668,20.668,0,0,1,2.139.625,1.281,1.281,0,0,1,.361,2.331,12.324,12.324,0,0,1-3.118,1.128c-.156.044-.65-.419-.656-.657a8.525,8.525,0,0,1,.2-2.537c.109-.388.738-.629,1.07-.89" transform="translate(87 356)" fill="#131413"/>
      <path id="Path_45" data-name="Path 45" d="M304.375,209.094a20.231,20.231,0,0,1,2.138.625,1.281,1.281,0,0,1,.362,2.331,12.368,12.368,0,0,1-3.119,1.127c-.155.044-.649-.419-.656-.656a8.566,8.566,0,0,1,.2-2.538c.108-.387.737-.629,1.07-.889" transform="translate(87 356)" fill="#131413"/>
      <path id="Path_46" data-name="Path 46" d="M275.365,159.62a20.229,20.229,0,0,1,2.138.625,1.281,1.281,0,0,1,.362,2.331,12.368,12.368,0,0,1-3.119,1.127c-.155.044-.649-.419-.656-.656a8.565,8.565,0,0,1,.205-2.538c.108-.387.737-.629,1.07-.889" transform="translate(87 356)" fill="#131413"/>
      <path id="Path_47" data-name="Path 47" d="M182.906,225.168a20.185,20.185,0,0,1,2.139.625,1.281,1.281,0,0,1,.361,2.331,12.346,12.346,0,0,1-3.118,1.127c-.155.044-.65-.419-.656-.656a8.531,8.531,0,0,1,.205-2.538c.108-.387.737-.629,1.069-.889" transform="translate(87 356)" fill="#131413"/>
      <path id="Path_48" data-name="Path 48" d="M183.393,165.054c1.539.261,2.293,1.262,1.87,2.692a7.114,7.114,0,0,1-3.31,3.811,1.164,1.164,0,0,1-1.117-.232,21.432,21.432,0,0,1-1.6-3.684,1.644,1.644,0,0,1,.729-1.411,28.01,28.01,0,0,1,3.427-1.176" transform="translate(87 356)" fill="#131413"/>
      <path id="Path_49" data-name="Path 49" d="M176.676,148.318c-2.3-.244-2.484-.466-1.882-2.663a10.967,10.967,0,0,1,.855-2.217,1.374,1.374,0,0,1,1.939-.683,18.708,18.708,0,0,1,2.651,1.351,1.871,1.871,0,0,1-.307,3.459,19.2,19.2,0,0,1-3.256.753" transform="translate(87 356)" fill="#131413"/>
      <path id="Path_50" data-name="Path 50" d="M335.677,248.545c-2.3-.244-2.484-.466-1.882-2.663a10.932,10.932,0,0,1,.855-2.217,1.373,1.373,0,0,1,1.939-.682,18.552,18.552,0,0,1,2.651,1.351,1.87,1.87,0,0,1-.307,3.458,19.109,19.109,0,0,1-3.256.753" transform="translate(87 356)" fill="#131413"/>
      <path id="Path_51" data-name="Path 51" d="M358.167,285.662c-2.3-.245-2.484-.466-1.882-2.663a11.058,11.058,0,0,1,.855-2.218,1.373,1.373,0,0,1,1.939-.682,18.6,18.6,0,0,1,2.651,1.351,1.871,1.871,0,0,1-.307,3.459,19.3,19.3,0,0,1-3.256.753" transform="translate(87 356)" fill="#131413"/>
      <path id="Path_52" data-name="Path 52" d="M385.428,284.9c-2.3-.244-2.483-.466-1.882-2.663a10.972,10.972,0,0,1,.856-2.217,1.372,1.372,0,0,1,1.938-.683,18.708,18.708,0,0,1,2.651,1.351,1.871,1.871,0,0,1-.307,3.459,19.18,19.18,0,0,1-3.256.753" transform="translate(87 356)" fill="#131413"/>
      <path id="Path_53" data-name="Path 53" d="M420.543,302.222c-2.3-.244-2.484-.466-1.882-2.663a10.966,10.966,0,0,1,.855-2.217,1.373,1.373,0,0,1,1.939-.683,18.761,18.761,0,0,1,2.651,1.351,1.871,1.871,0,0,1-.307,3.459,19.2,19.2,0,0,1-3.256.753" transform="translate(87 356)" fill="#131413"/>
      <path id="Path_54" data-name="Path 54" d="M450.45,316.846c-2.3-.244-2.483-.465-1.882-2.663a11.017,11.017,0,0,1,.856-2.217,1.373,1.373,0,0,1,1.939-.682,18.66,18.66,0,0,1,2.651,1.351,1.871,1.871,0,0,1-.307,3.459,19.191,19.191,0,0,1-3.257.752" transform="translate(87 356)" fill="#131413"/>
      <path id="Path_55" data-name="Path 55" d="M459.044,339.733c-2.3-.244-2.484-.466-1.882-2.663a11.029,11.029,0,0,1,.855-2.217,1.374,1.374,0,0,1,1.939-.683,18.708,18.708,0,0,1,2.651,1.351,1.871,1.871,0,0,1-.307,3.459,19.2,19.2,0,0,1-3.256.753" transform="translate(87 356)" fill="#131413"/>
      <path id="Path_56" data-name="Path 56" d="M476.279,353.268c-2.3-.244-2.483-.466-1.882-2.663a10.971,10.971,0,0,1,.856-2.217,1.373,1.373,0,0,1,1.939-.683,18.764,18.764,0,0,1,2.651,1.351,1.871,1.871,0,0,1-.307,3.459,19.193,19.193,0,0,1-3.257.753" transform="translate(87 356)" fill="#131413"/>
      <path id="Path_57" data-name="Path 57" d="M378.127,254.133c-2.3-.244-2.483-.466-1.882-2.663a10.994,10.994,0,0,1,.856-2.217,1.372,1.372,0,0,1,1.939-.682,18.554,18.554,0,0,1,2.651,1.351,1.87,1.87,0,0,1-.307,3.458,19.1,19.1,0,0,1-3.257.753" transform="translate(87 356)" fill="#131413"/>
      <path id="Path_58" data-name="Path 58" d="M197.642,153.57c-2.3-.244-2.483-.465-1.882-2.663a11.017,11.017,0,0,1,.856-2.217,1.373,1.373,0,0,1,1.939-.682,18.71,18.71,0,0,1,2.651,1.351,1.871,1.871,0,0,1-.308,3.459,19.181,19.181,0,0,1-3.256.752" transform="translate(87 356)" fill="#131413"/>
      <path id="Path_59" data-name="Path 59" d="M164.5,184.6c-.33-.025-.662-.042-.991-.078-.612-.067-.936-.469-.8-1.022a17.816,17.816,0,0,1,.942-2.908,1.191,1.191,0,0,1,1.744-.625,14.154,14.154,0,0,1,2.274,1.183,1.608,1.608,0,0,1-.358,2.964,16.417,16.417,0,0,1-2.78.618c-.009-.044-.02-.088-.03-.132" transform="translate(87 356)" fill="#131413"/>
      <path id="Path_60" data-name="Path 60" d="M169.544,213.739c-.33-.025-.661-.042-.99-.078-.612-.068-.937-.47-.8-1.023a17.878,17.878,0,0,1,.942-2.908,1.192,1.192,0,0,1,1.744-.625,14.2,14.2,0,0,1,2.275,1.183,1.608,1.608,0,0,1-.359,2.964,16.407,16.407,0,0,1-2.779.619c-.01-.044-.02-.088-.031-.132" transform="translate(87 356)" fill="#131413"/>
      <path id="Path_61" data-name="Path 61" d="M165.782,158.52c-.362.658-.956,1.824-1.654,2.923a1.058,1.058,0,0,1-1.019.133,14.694,14.694,0,0,1-2.137-2.435,1.478,1.478,0,0,1,.188-1.417,8.293,8.293,0,0,1,2.374-1.575c1.342-.564,2.374.3,2.248,2.371" transform="translate(87 356)" fill="#131413"/>
      <path id="Path_62" data-name="Path 62" d="M151.341,139.307c-.393-2.281-.229-2.518,2.049-2.537a11.034,11.034,0,0,1,2.366.218,1.374,1.374,0,0,1,1.186,1.679,18.59,18.59,0,0,1-.577,2.919,1.871,1.871,0,0,1-3.412.648,19.381,19.381,0,0,1-1.612-2.927" transform="translate(87 356)" fill="#131413"/>
      <path id="Path_63" data-name="Path 63" d="M144.77,158.815c-.732-.169-2.016-.422-3.264-.794a1.057,1.057,0,0,1-.4-.943,14.7,14.7,0,0,1,1.76-2.721,1.475,1.475,0,0,1,1.414-.205,8.308,8.308,0,0,1,2.163,1.853c.908,1.138.361,2.366-1.668,2.81" transform="translate(87 356)" fill="#131413"/>
      <path id="Path_64" data-name="Path 64" d="M145.576,169.183a20.37,20.37,0,0,1,2.138.626,1.28,1.28,0,0,1,.362,2.33,12.339,12.339,0,0,1-3.118,1.128c-.156.044-.65-.419-.656-.657a8.525,8.525,0,0,1,.2-2.537c.108-.388.737-.629,1.07-.89" transform="translate(87 356)" fill="#131413"/>
      <path id="Path_65" data-name="Path 65" d="M143.013,183.568a20.16,20.16,0,0,1,2.138.625,1.281,1.281,0,0,1,.362,2.331,12.375,12.375,0,0,1-3.118,1.127c-.156.044-.65-.419-.656-.656a8.531,8.531,0,0,1,.2-2.538c.108-.387.737-.629,1.07-.889" transform="translate(87 356)" fill="#131413"/>
      <path id="Path_66" data-name="Path 66" d="M121.767,206.113c.724,1.384.381,2.59-1.015,3.117a7.117,7.117,0,0,1-5.037-.335,1.166,1.166,0,0,1-.489-1.029,21.339,21.339,0,0,1,1.969-3.5,1.644,1.644,0,0,1,1.565-.272,27.9,27.9,0,0,1,3.007,2.02" transform="translate(87 356)" fill="#131413"/>
      <path id="Path_67" data-name="Path 67" d="M69.194,199.12c.723,1.384.381,2.589-1.016,3.117a7.12,7.12,0,0,1-5.036-.335,1.165,1.165,0,0,1-.49-1.03,21.426,21.426,0,0,1,1.97-3.5,1.648,1.648,0,0,1,1.564-.272,28.075,28.075,0,0,1,3.008,2.021" transform="translate(87 356)" fill="#131413"/>
      <path id="Path_68" data-name="Path 68" d="M48.526,207.532c.724,1.384.381,2.589-1.015,3.117a7.122,7.122,0,0,1-5.037-.335,1.167,1.167,0,0,1-.489-1.03,21.454,21.454,0,0,1,1.969-3.5,1.65,1.65,0,0,1,1.565-.272,28.063,28.063,0,0,1,3.007,2.021" transform="translate(87 356)" fill="#131413"/>
      <path id="Path_69" data-name="Path 69" d="M50.753,232.338c.724,1.385.381,2.59-1.015,3.117a7.111,7.111,0,0,1-5.037-.335,1.166,1.166,0,0,1-.489-1.029,21.338,21.338,0,0,1,1.969-3.5,1.646,1.646,0,0,1,1.564-.272,28.214,28.214,0,0,1,3.008,2.02" transform="translate(87 356)" fill="#131413"/>
      <path id="Path_70" data-name="Path 70" d="M61.347,235.142c.723,1.384.381,2.589-1.016,3.117a7.12,7.12,0,0,1-5.036-.335,1.169,1.169,0,0,1-.49-1.03,21.417,21.417,0,0,1,1.97-3.5,1.648,1.648,0,0,1,1.564-.272,28.075,28.075,0,0,1,3.008,2.021" transform="translate(87 356)" fill="#131413"/>
      <path id="Path_71" data-name="Path 71" d="M121.851,190.84c-1.2-1.981-1.13-2.261.984-3.108a11.05,11.05,0,0,1,2.284-.66,1.375,1.375,0,0,1,1.715,1.133,18.631,18.631,0,0,1,.526,2.93,1.871,1.871,0,0,1-2.942,1.845,19.229,19.229,0,0,1-2.567-2.14" transform="translate(87 356)" fill="#131413"/>
      <path id="Path_72" data-name="Path 72" d="M101.8,196.527c-.179-.278-.366-.553-.536-.836a.8.8,0,0,1,.33-1.256,17.827,17.827,0,0,1,2.887-1.007,1.191,1.191,0,0,1,1.551,1.011,14.2,14.2,0,0,1,.432,2.527,1.607,1.607,0,0,1-2.578,1.5,16.2,16.2,0,0,1-2.172-1.84c.028-.035.058-.069.086-.1" transform="translate(87 356)" fill="#131413"/>
      <path id="Path_73" data-name="Path 73" d="M112.342,186.677c-.744.109-2.031.341-3.329.448-.232.019-.746-.505-.721-.731a14.676,14.676,0,0,1,.649-3.174,1.474,1.474,0,0,1,1.242-.706,8.3,8.3,0,0,1,2.69.939c1.26.729,1.2,2.072-.531,3.224" transform="translate(87 356)" fill="#131413"/>
      <path id="Path_74" data-name="Path 74" d="M121.688,168.111c1.58-1.691,1.866-1.7,3.259.1a11.016,11.016,0,0,1,1.257,2.016,1.375,1.375,0,0,1-.622,1.96,18.718,18.718,0,0,1-2.675,1.305,1.87,1.87,0,0,1-2.577-2.327,19.058,19.058,0,0,1,1.358-3.054" transform="translate(87 356)" fill="#131413"/>
      <path id="Path_75" data-name="Path 75" d="M103.4,171.568c-.308-.685-.882-1.86-1.339-3.079a1.059,1.059,0,0,1,.507-.9,14.812,14.812,0,0,1,3.23-.24,1.478,1.478,0,0,1,1.019,1,8.29,8.29,0,0,1-.17,2.845c-.357,1.411-1.666,1.718-3.247.368" transform="translate(87 356)" fill="#131413"/>
      <path id="Path_76" data-name="Path 76" d="M118.975,157.513c-.309-.686-.882-1.861-1.339-3.08a1.053,1.053,0,0,1,.506-.894,14.751,14.751,0,0,1,3.23-.241,1.477,1.477,0,0,1,1.019,1,8.291,8.291,0,0,1-.17,2.845c-.357,1.41-1.666,1.717-3.246.368" transform="translate(87 356)" fill="#131413"/>
      <path id="Path_77" data-name="Path 77" d="M76.014,132.1c1.54.261,2.293,1.262,1.87,2.693a7.123,7.123,0,0,1-3.309,3.811,1.168,1.168,0,0,1-1.118-.233,21.4,21.4,0,0,1-1.6-3.684,1.651,1.651,0,0,1,.729-1.411,28.008,28.008,0,0,1,3.427-1.176" transform="translate(87 356)" fill="#131413"/>
      <path id="Path_78" data-name="Path 78" d="M56.31,142.216c-.33-.025-.661-.042-.99-.078-.612-.068-.937-.47-.8-1.023a17.75,17.75,0,0,1,.942-2.908,1.19,1.19,0,0,1,1.743-.625,14.122,14.122,0,0,1,2.275,1.183,1.608,1.608,0,0,1-.358,2.964,16.442,16.442,0,0,1-2.78.619c-.01-.044-.02-.088-.031-.132" transform="translate(87 356)" fill="#131413"/>
      <path id="Path_79" data-name="Path 79" d="M31.755,157.292c-.33-.025-.661-.042-.99-.078-.612-.068-.937-.47-.8-1.023a17.781,17.781,0,0,1,.942-2.908,1.191,1.191,0,0,1,1.744-.625,14.235,14.235,0,0,1,2.274,1.183,1.608,1.608,0,0,1-.358,2.964,16.439,16.439,0,0,1-2.78.619c-.01-.044-.02-.088-.031-.132" transform="translate(87 356)" fill="#131413"/>
      <path id="Path_80" data-name="Path 80" d="M51.2,115.766c-.33-.025-.662-.042-.991-.078-.612-.067-.936-.469-.8-1.022a17.846,17.846,0,0,1,.942-2.908,1.191,1.191,0,0,1,1.744-.625,14.154,14.154,0,0,1,2.274,1.183,1.608,1.608,0,0,1-.358,2.964,16.417,16.417,0,0,1-2.78.618c-.009-.044-.02-.088-.03-.132" transform="translate(87 356)" fill="#131413"/>
      <path id="Path_81" data-name="Path 81" d="M65.834,124.572c-.33-.025-.661-.042-.99-.078-.612-.068-.937-.47-.8-1.023a17.843,17.843,0,0,1,.941-2.908,1.192,1.192,0,0,1,1.744-.625A14.122,14.122,0,0,1,69,121.121a1.608,1.608,0,0,1-.359,2.964,16.407,16.407,0,0,1-2.779.619c-.01-.044-.02-.088-.031-.132" transform="translate(87 356)" fill="#131413"/>
      <path id="Path_82" data-name="Path 82" d="M153.492,119.727c-.331-.025-.662-.042-.991-.078-.612-.067-.936-.469-.8-1.022a17.816,17.816,0,0,1,.942-2.908,1.19,1.19,0,0,1,1.744-.625,14.154,14.154,0,0,1,2.274,1.183,1.608,1.608,0,0,1-.358,2.964,16.416,16.416,0,0,1-2.78.618c-.009-.044-.02-.088-.03-.132" transform="translate(87 356)" fill="#131413"/>
      <path id="Path_83" data-name="Path 83" d="M139.074,129c-.33-.025-.661-.042-.99-.078-.612-.068-.937-.47-.8-1.023a17.749,17.749,0,0,1,.942-2.908,1.19,1.19,0,0,1,1.743-.625,14.2,14.2,0,0,1,2.275,1.183,1.608,1.608,0,0,1-.358,2.964,16.44,16.44,0,0,1-2.78.619c-.01-.044-.02-.088-.031-.132" transform="translate(87 356)" fill="#131413"/>
      <path id="Path_84" data-name="Path 84" d="M27.729,138.807a15,15,0,0,1,1.792.616,1.376,1.376,0,0,1,.294,2.329,9.4,9.4,0,0,1-2.622,1.14c-.132.045-.544-.416-.549-.653a10.1,10.1,0,0,1,.183-2.538c.092-.388.622-.632.9-.894" transform="translate(87 356)" fill="#131413"/>
      <path id="Path_85" data-name="Path 85" d="M65.158,153.277c-.308-.686-.882-1.861-1.339-3.08a1.051,1.051,0,0,1,.506-.893,14.7,14.7,0,0,1,3.231-.242,1.476,1.476,0,0,1,1.018,1,8.291,8.291,0,0,1-.17,2.845c-.357,1.41-1.666,1.717-3.246.368" transform="translate(87 356)" fill="#131413"/>
      <path id="Path_86" data-name="Path 86" d="M89.12,203.481a20.365,20.365,0,0,1,.794,2.082c.294,1.154-.562,2.114-1.639,1.7a12.342,12.342,0,0,1-2.782-1.8c-.129-.1-.059-.771.127-.92a8.509,8.509,0,0,1,2.146-1.37c.374-.148.946.208,1.354.315" transform="translate(87 356)" fill="#131413"/>
      <path id="Path_87" data-name="Path 87" d="M58.276,212.526a20.131,20.131,0,0,1,.794,2.082c.3,1.154-.561,2.114-1.638,1.7a12.257,12.257,0,0,1-2.783-1.8c-.129-.1-.059-.77.127-.919a8.481,8.481,0,0,1,2.146-1.37c.374-.148.946.207,1.354.314" transform="translate(87 356)" fill="#131413"/>
      <path id="Path_88" data-name="Path 88" d="M141.664,211.006a20.6,20.6,0,0,1,.794,2.081c.294,1.154-.562,2.115-1.639,1.7a12.281,12.281,0,0,1-2.782-1.8c-.13-.1-.06-.771.126-.92a8.545,8.545,0,0,1,2.146-1.37c.374-.148.947.207,1.355.315" transform="translate(87 356)" fill="#131413"/>
      <path id="Path_89" data-name="Path 89" d="M3.893,223.229c1.384-.723,2.589-.381,3.117,1.016a7.122,7.122,0,0,1-.335,5.037,1.166,1.166,0,0,1-1.03.489,21.5,21.5,0,0,1-3.5-1.969,1.65,1.65,0,0,1-.272-1.565,28.174,28.174,0,0,1,2.021-3.008" transform="translate(87 356)" fill="#131413"/>
      <path id="Path_90" data-name="Path 90" d="M22.684,220.254c1.384-.723,2.589-.381,3.117,1.016a7.12,7.12,0,0,1-.335,5.036,1.166,1.166,0,0,1-1.03.49,21.344,21.344,0,0,1-3.5-1.97,1.648,1.648,0,0,1-.272-1.564,28.076,28.076,0,0,1,2.021-3.008" transform="translate(87 356)" fill="#131413"/>
      <path id="Path_91" data-name="Path 91" d="M31.593,206.9c1.383-.723,2.589-.381,3.116,1.016a7.124,7.124,0,0,1-.334,5.036,1.166,1.166,0,0,1-1.03.49,21.412,21.412,0,0,1-3.5-1.969,1.642,1.642,0,0,1-.271-1.565,27.869,27.869,0,0,1,2.02-3.008" transform="translate(87 356)" fill="#131413"/>
    </g>
  </g>
  </svg>

  <path fill="url(#A)"
    d="M62.203 98.71c-3.694 14.114 18.324 32.101 49.178 40.176s58.86 3.178 62.554-10.936-18.324-32.101-49.178-40.176-58.861-3.179-62.554 10.935z" />
  <!-- <g class="B">
    <path
      d="M146.673 123.286c7.098 5.22 11.246 10.866 11.865 15.871l2.978-.368c-.772-6.238-5.737-12.531-13.066-17.92-7.389-5.435-17.439-10.148-28.913-13.151s-22.544-3.817-31.649-2.699c-9.029 1.109-16.44 4.163-20.168 9.223l2.415 1.779c2.992-4.06 9.373-6.95 18.119-8.024 8.67-1.064 19.354-.299 30.523 2.624s20.859 7.49 27.896 12.665z"
      class="C" />
    <path fill="#979797"
      d="M75.734 118.739c-8.721-7.124-11.998-14.041-10.629-19.27s7.614-9.654 18.706-11.593c10.807-1.889 25.078-1.154 40.186 2.8s27.911 10.304 36.406 17.245c8.721 7.124 11.998 14.041 10.63 19.27s-7.614 9.653-18.707 11.593c-10.806 1.889-25.078 1.153-40.186-2.8s-27.91-10.304-36.406-17.245zm35.647 20.147c-30.854-8.075-52.872-26.062-49.178-40.176s31.7-19.01 62.554-10.935 52.872 26.062 49.178 40.176-31.7 19.01-62.554 10.936z" />
    <path fill="url(#B)" d="M64.167 124.049l-4.937-19.123 2.905-.75 4.937 19.123-2.905.75z" />
    <path fill="url(#C)"
      d="M62.469 106.189l-.128-.443-.202-.817-.142-.54c.022-.012.03-.019.028-.027l-.004-.025-.12-.794-.022-.191c-.072-.663-.096-1.321-.071-1.974.035-.903.166-1.793.395-2.668 3.694-14.114 31.7-19.01 62.555-10.936s52.872 26.062 49.178 40.176a12.4 12.4 0 0 1-.963 2.519 13.7 13.7 0 0 1-1.635 2.476l-.016.019c.011.02.014.025.015.029l-.611.651-12.932 13.655c-6.807 9.031-27.596 11.752-50.146 5.85-22.302-5.837-38.971-18.182-40.797-29.295-.093-.569-.484-1.054-1.037-1.215L29.127 111.91a8.26 8.26 0 0 1-5.762-9.635l.459-2.172c.39-1.845 2.242-2.99 4.066-2.514l34.249 8.931a.27.27 0 0 0 .331-.331zm-3.657-3.636c-.064-1.544.091-3.085.488-4.603 2.325-8.885 11.93-13.965 23.478-15.984 11.834-2.069 26.992-1.215 42.738 2.906s29.38 10.802 38.683 18.402c9.078 7.417 14.963 16.551 12.638 25.436-.557 2.129-1.552 4.064-2.901 5.789a3.08 3.08 0 0 1-.425.566l-13.429 14.181c-4.171 5.406-12.026 8.46-21.098 9.556-9.3 1.124-20.517.28-32.096-2.751-11.453-2.997-21.548-7.685-29.079-13.141-7.079-5.13-12.321-11.262-13.743-17.657l-35.782-10.464a11.26 11.26 0 0 1-7.855-13.134l.459-2.173c.744-3.519 4.277-5.704 7.758-4.796l30.165 7.867z" />
  </g> -->
  <circle cx="76" cy="29" r="29" fill="#f0b90b" />
  <path fill="#fffdfa"
    d="M65.185 29l-4.437 4.468L56.28 29l4.468-4.468L65.185 29zM76 18.185l7.642 7.642 4.468-4.468-7.641-7.611L76 9.28 63.921 21.358l4.468 4.468L76 18.185zm15.252 6.347L86.815 29l4.468 4.468L95.72 29l-4.468-4.468zM76 39.815l-7.641-7.642-4.437 4.468L76 48.72l12.109-12.109-4.468-4.437L76 39.815zm0-6.347L80.468 29 76 24.532 71.532 29 76 33.468z" />
  <circle cx="76" cy="29" r="27.5" stroke="#191326" stroke-width="3" opacity=".1" style="mix-blend-mode:multiply" />
  <!-- <circle cx="125.5" cy="72.5" r="43.5" fill="url(#D)" />
  <path
    d="M97.245 77.28l-.011.489c0 .618.054 1.229.159 1.83h-.159v.947a10.62 10.62 0 0 0 .089 1.373c1.152 8.837 13.327 15.79 28.177 15.79s27.026-6.953 28.178-15.79a10.62 10.62 0 0 0 .089-1.373v-.947h-.159c.105-.601.159-1.212.159-1.83 0-.164-.004-.327-.011-.489-.427-9.252-12.914-16.673-28.256-16.673S97.671 68.027 97.245 77.28zm-2.322 0c.21-5.645 4.046-10.387 9.386-13.629 5.535-3.36 13.033-5.364 21.191-5.364s15.657 2.003 21.191 5.364c5.34 3.242 9.176 7.984 9.386 13.629h.009v3.266c0 5.86-3.902 10.783-9.395 14.118-5.534 3.361-13.032 5.363-21.191 5.363s-15.656-2.003-21.191-5.363c-5.493-3.335-9.395-8.258-9.395-14.118V77.28h.009z"
    class="B C" />
  <path fill="#bebebe"
    d="M153.767 80.546c0 9.479-12.655 17.162-28.266 17.162s-28.267-7.684-28.267-17.162v-2.717h56.533v2.717z" />
  <path fill="#f5f3f3"
    d="M153.767 77.769c0 9.479-12.655 17.163-28.266 17.163s-28.267-7.684-28.267-17.163 12.655-17.162 28.267-17.162 28.266 7.684 28.266 17.163z" />
  <path
    d="M101.583 72.92v.032c0 .78.113 1.545.33 2.287h-.33v1.005c0 .444.036.882.108 1.314 1.077 6.526 10.093 11.619 21.055 11.619s19.978-5.094 21.056-11.619c.071-.432.108-.871.108-1.314v-1.005h-.33a8.13 8.13 0 0 0 .33-2.223v-.096c-.028-7.128-9.493-12.901-21.163-12.901s-21.135 5.773-21.164 12.901zm-2.319 0h0v3.325c0 4.685 3.099 8.551 7.309 11.124 4.25 2.597 9.975 4.128 16.174 4.128s11.924-1.531 16.175-4.128c4.21-2.573 7.308-6.439 7.308-11.124v-3.22l.001-.072c0-4.685-3.099-8.551-7.309-11.125-4.25-2.597-9.975-4.129-16.174-4.129s-11.924 1.531-16.175 4.129c-4.201 2.567-7.294 6.422-7.308 11.092z"
    class="B D" />
  <path d="M143.91 76.245c0 7.143-9.475 12.934-21.163 12.934s-21.164-5.791-21.164-12.934V73.21h42.327v3.035z"
    class="E" />
  <path
    d="M143.91 72.952c0 7.143-9.475 12.934-21.163 12.934s-21.164-5.79-21.164-12.934 9.476-12.934 21.164-12.934 21.163 5.791 21.163 12.934z"
    class="F" />
  <path
    d="M107.962 65.962v.032c0 .78.113 1.545.33 2.287h-.331v1.005c0 .444.037.882.108 1.314 1.078 6.526 10.094 11.619 21.056 11.619s19.978-5.093 21.056-11.619c.071-.432.108-.871.108-1.314v-1.005h-.33a8.13 8.13 0 0 0 .33-2.223v-.096c-.029-7.128-9.493-12.901-21.164-12.901s-21.135 5.773-21.163 12.901zm-2.32 0h0v3.325c0 4.685 3.098 8.551 7.309 11.124 4.25 2.597 9.974 4.128 16.174 4.128s11.924-1.531 16.174-4.128c4.211-2.573 7.309-6.439 7.309-11.124v-3.292c0-4.685-3.098-8.551-7.308-11.125-4.251-2.598-9.975-4.129-16.175-4.129s-11.924 1.531-16.174 4.129c-4.201 2.567-7.294 6.422-7.309 11.092z"
    class="B D" />
  <path d="M150.287 69.287c0 7.143-9.475 12.934-21.163 12.934S107.96 76.43 107.96 69.287v-3.035h42.327v3.035z"
    class="E" />
  <path
    d="M150.287 65.994c0 7.143-9.475 12.934-21.163 12.934s-21.164-5.791-21.164-12.934 9.475-12.934 21.164-12.934 21.163 5.791 21.163 12.934z"
    class="F" />
  <path
    d="M101.583 59.004v.032c0 .781.113 1.545.33 2.287h-.33v1.005c0 .444.036.882.108 1.314 1.077 6.526 10.093 11.619 21.055 11.619s19.978-5.093 21.056-11.619c.071-.432.108-.871.108-1.314v-1.005h-.33a8.13 8.13 0 0 0 .33-2.223v-.096c-.028-7.128-9.493-12.901-21.163-12.901s-21.135 5.773-21.164 12.901zm-2.319 0h0v3.325c0 4.685 3.099 8.551 7.309 11.124 4.25 2.597 9.975 4.129 16.174 4.129s11.924-1.531 16.175-4.129c4.21-2.573 7.308-6.439 7.308-11.124v-3.22l.001-.072c0-4.685-3.099-8.551-7.309-11.124-4.25-2.598-9.975-4.129-16.174-4.129s-11.924 1.531-16.175 4.129c-4.201 2.567-7.294 6.421-7.308 11.092z"
    class="B D" />
  <path d="M143.91 62.329c0 7.143-9.475 12.934-21.163 12.934s-21.164-5.791-21.164-12.934v-3.035h42.327v3.035z"
    class="E" />
  <path
    d="M143.91 59.036c0 7.143-9.475 12.934-21.163 12.934s-21.164-5.791-21.164-12.934 9.476-12.934 21.164-12.934 21.163 5.791 21.163 12.934z"
    class="F" /> -->



  <!-- <g class="B">
    <path fill="url(#E)"
      d="M106.588 59.841c0 2.385 1.733 4.521 4.467 5.958l-1.895 3.281h.001-.001v8.303a1.99 1.99 0 0 0 1.988 1.988 1.99 1.99 0 0 0 1.988-1.988v-6.603l2.038-3.53c1.303.276 2.702.426 4.158.426 7.038 0 12.743-3.508 12.743-7.835s-5.705-7.835-12.743-7.835-12.744 3.508-12.744 7.835z" />
    <path fill="#633001"
      d="M111.056 65.798l-.87-.503c-2.226-1.411-3.596-3.334-3.596-5.455 0-4.327 5.705-7.835 12.743-7.835s12.744 3.508 12.744 7.835-5.705 7.835-12.744 7.835a20.09 20.09 0 0 1-4.157-.426l-2.038 3.53v6.603a1.99 1.99 0 0 1-1.988 1.988 1.99 1.99 0 0 1-1.988-1.988v-8.303l1.894-3.281zm-3.923 3.316v8.268a4.02 4.02 0 0 0 4.017 4.017 4.02 4.02 0 0 0 4.018-4.017v-6.059l1.057-1.831a22.53 22.53 0 0 0 3.108.213c3.833 0 7.4-.951 10.074-2.595 2.642-1.624 4.699-4.137 4.699-7.269s-2.057-5.645-4.699-7.269c-2.674-1.645-6.241-2.595-10.074-2.595s-7.399.951-10.074 2.595c-2.641 1.624-4.699 4.137-4.699 7.269 0 2.749 1.575 5.013 3.762 6.634l-.903 1.565a2.05 2.05 0 0 0-.204.465 2.02 2.02 0 0 0-.082.61z" />
  </g> -->
  <!-- <g fill="#9e7200">
    <use xlink:href="#F" />
    <path d="M110.57 54.8h12.756v1.739H110.57V54.8z" />
  </g>
  <use y="-1.74" fill="#f0b90b" xlink:href="#F" />
  <path fill="#9e7200"
    d="M114.528 54.311l1.797-1.144a1.16 1.16 0 0 1 1.245 0l1.798 1.144a.58.58 0 0 1 0 .978l-1.798 1.144a1.16 1.16 0 0 1-1.245 0l-1.797-1.144a.58.58 0 0 1 0-.978z" />
  <path fill="#633001"
    d="M111.348 50.218c1.527-.971 3.512-1.506 5.6-1.506s4.073.535 5.599 1.506c1.503.956 2.808 2.527 2.808 4.582v1.74c0 2.055-1.305 3.626-2.808 4.582-1.526.972-3.512 1.506-5.599 1.506s-4.073-.535-5.6-1.506c-1.502-.956-2.808-2.527-2.808-4.582V54.8c0-2.055 1.306-3.626 2.808-4.582zm5.6.523c-3.523 0-6.378 1.817-6.378 4.059v1.74c0 2.242 2.855 4.059 6.378 4.059s6.378-1.817 6.378-4.059V54.8c0-2.242-2.856-4.059-6.378-4.059z"
    class="B" />
  <circle cx="125.5" cy="72.5" r="42.082" stroke="#191326" stroke-width="2.837" opacity=".2"
    style="mix-blend-mode:multiply" /> -->
  <!-- <defs>
    <linearGradient id="A" x1="124.757" x2="111.381" y1="87.774" y2="138.886" xlink:href="#G">
      <stop stop-color="#404042" />
      <stop offset="1" stop-color="#48484b" />
    </linearGradient>
    <linearGradient id="B" x1="65.567" x2="60.735" y1="105.096" y2="123.129" xlink:href="#G">
      <stop stop-color="#404042" />
      <stop offset="1" stop-color="#48484b" />
    </linearGradient>
    <linearGradient id="C" x1="92.495" x2="108.09" y1="80.169" y2="164.62" xlink:href="#G">
      <stop stop-color="#404042" />
      <stop offset="1" stop-color="#48484b" />
    </linearGradient>
    <linearGradient id="D" x1="125.5" x2="125.5" y1="29" y2="116" xlink:href="#G">
      <stop stop-color="#54dade" />
      <stop offset=".762" stop-color="#24c7d6" />
    </linearGradient>
    <linearGradient id="E" x1="119.469" x2="119.469" y1="52.268" y2="79.165" xlink:href="#G">
      <stop stop-color="#9f4a08" />
      <stop offset=".37" stop-color="#7d3900" />
      <stop offset="1" stop-color="#8d4104" />
    </linearGradient>
    <path id="F"
      d="M110.571 56.54c0 2.242 2.856 4.059 6.378 4.059s6.378-1.817 6.378-4.059-2.855-4.059-6.378-4.059-6.378 1.817-6.378 4.059z" />
    <linearGradient id="G" gradientUnits="userSpaceOnUse" />
  </defs> -->
</svg>